<svg xmlns="http://www.w3.org/2000/svg" xmlns:xlink="http://www.w3.org/1999/xlink" width="32" height="32" viewBox="0 0 32 32">
    <defs>
        <path id="w5s8yri3na" d="M0 0.691L22 0.691 22 22.691 0 22.691z"/>
        <path id="1k32az45nc" d="M10.858.691C4.849.767 0 5.663 0 11.691c0 6.075 4.925 11 11 11s11-4.925 11-11c0-6.028-4.849-10.924-10.858-11"/>
    </defs>
    <g fill="none" fill-rule="evenodd">
        <g transform="translate(5 4) translate(0 .31)">
            <path fill="#231F20" d="M11 22.191c-5.79 0-10.5-4.71-10.5-10.5s4.71-10.5 10.5-10.5 10.5 4.71 10.5 10.5-4.71 10.5-10.5 10.5"/>
            <mask id="g0q6vrr8cb" fill="#fff">
                <use xlink:href="#w5s8yri3na"/>
            </mask>
            <path fill="#231F20" d="M11 .69c-6.075 0-11 4.926-11 11 0 6.077 4.925 11 11 11s11-4.923 11-11c0-6.074-4.925-11-11-11m0 1c5.514 0 10 4.487 10 10 0 5.515-4.486 10-10 10s-10-4.485-10-10c0-5.513 4.486-10 10-10" mask="url(#g0q6vrr8cb)"/>
            <path fill="#FEFEFE" d="M11 3.878c-2.762 0-5 2.238-5 5 0 2.76 2.238 5 5 5s5-2.24 5-5c0-2.762-2.238-5-5-5m0 1c2.206 0 4 1.794 4 4s-1.794 4-4 4-4-1.794-4-4 1.794-4 4-4"/>
        </g>
        <g transform="translate(5 4) translate(0 .31)">
            <mask id="fi9bu7w4ud" fill="#fff">
                <use xlink:href="#1k32az45nc"/>
            </mask>
            <path fill="#FEFEFE" d="M11 13C4.925 13 0 17.925 0 24s4.925 11 11 11 11-4.925 11-11-4.925-11-11-11m0 1c5.514 0 10 4.486 10 10 0 5.515-4.486 10-10 10S1 29.515 1 24c0-5.514 4.486-10 10-10" mask="url(#fi9bu7w4ud)"/>
        </g>
    </g>
</svg>
