<svg xmlns="http://www.w3.org/2000/svg" width="116" height="24" viewBox="0 0 116 24">
    <g fill="#FFF" fill-rule="nonzero">
        <path d="M42.554 2.946A17.52 17.52 0 0 0 33.848.828a17.512 17.512 0 0 0-8.714 2.118 5.048 5.048 0 0 0-2.673 4.345 5.057 5.057 0 0 0 2.673 4.345 17.479 17.479 0 0 0 8.714 2.102 17.487 17.487 0 0 0 8.715-2.102 5.057 5.057 0 0 0 2.673-4.345 5.04 5.04 0 0 0-2.682-4.345zm-8.706 10.295c-2.11 0-5.71-1.241-5.71-5.95 0-4.138 2.855-5.967 5.685-5.967 3.79 0 6.058 2.226 6.058 5.967.025 4.014-1.961 5.95-6.033 5.95zM115.862 1.506v-.48h-9.418v.48h2.044v5.23h-8.102v-5.23h2.053v-.48h-9.41v.48h2.044v11.578H93.03v.48h9.41v-.48h-2.053V7.217h8.102v5.867h-2.044v.48h9.377l.041-.008v-.472h-2.052V1.506zM56.913.828h-.298l-9.997 12.256h-2.26v.48h5.645v-.48h-2.764l2.482-3.062h9.038l2.813 3.07H58.9v.48h11.827v-.48h-2.624L56.913.828zm1.424 8.681h-8.202l3.815-4.7 4.387 4.7zM18.687 8.706a6.86 6.86 0 0 1-1.432 2.26 7.382 7.382 0 0 1-5.594 2.275 5.454 5.454 0 0 1-4.519-2.052 6.513 6.513 0 0 1-1.283-3.89 5.793 5.793 0 0 1 5.793-5.975 7.68 7.68 0 0 1 4.966 1.738c.913.733 1.61 1.7 2.02 2.797h.396V1.026h-.347l-2.334 1.266a7.498 7.498 0 0 0-1.456-.72 11.156 11.156 0 0 0-3.998-.744 16.85 16.85 0 0 0-7.448 1.53C1.2 3.527 0 5.223 0 7.292c0 4.229 3.997 6.463 11.586 6.463a8.127 8.127 0 0 0 4.833-1.44l2.31 1.25h.305V8.706h-.347zM82.022 1.324a7.68 7.68 0 0 1 4.966 1.738c.912.734 1.61 1.7 2.019 2.797h.38V1.026h-.347l-2.359 1.266c-.45-.29-.93-.531-1.431-.72a11.164 11.164 0 0 0-3.99-.744 16.85 16.85 0 0 0-7.448 1.53c-2.25 1.168-3.467 2.864-3.467 4.933 0 4.229 3.997 6.463 11.586 6.463a8.127 8.127 0 0 0 4.833-1.44l2.31 1.25h.372V8.706h-.381a6.836 6.836 0 0 1-1.432 2.26 7.382 7.382 0 0 1-5.61 2.275 5.454 5.454 0 0 1-4.52-2.052 6.521 6.521 0 0 1-1.282-3.89 5.793 5.793 0 0 1 5.801-5.975zM64.312 23.735H68.3v-.563h-3.377v-1.158h3.128v-.563h-3.128v-1.076h3.377v-.563h-3.99zM57.004 20.375v3.36h-.62v-3.36H54.67v-.563h4.039v.563zM71.735 20.375v3.36h-.62v-3.36H69.41v-.563h4.038v.563zM59.818 23.735v-3.923h.596v3.36h2.764v.563zM45.087 19.763c-1.473 0-2.673.902-2.673 2.01 0 1.11 1.2 2.012 2.673 2.012s2.673-.902 2.673-2.011c0-1.11-1.2-2.011-2.673-2.011zm0 3.467c-1.1 0-2.036-.67-2.036-1.456 0-.786.935-1.457 2.036-1.457 1.1 0 2.036.67 2.036 1.457 0 .786-.935 1.456-2.036 1.456zM52.966 19.812v2.21a.919.919 0 0 1-.63.96c-.35.128-.72.192-1.092.19a2.632 2.632 0 0 1-1.29-.29.91.91 0 0 1-.473-.943v-2.127h-.653v2.194a1.399 1.399 0 0 0 .67 1.39 3.161 3.161 0 0 0 1.655.389 3.252 3.252 0 0 0 1.655-.348c.496-.269.775-.814.704-1.374v-2.25h-.546z"/>
    </g>
</svg>
