<svg xmlns="http://www.w3.org/2000/svg" width="64" height="33" viewBox="0 0 64 33">
    <g fill="#FFF" fill-rule="evenodd">
        <path d="M62.36 21.336c.346 0 .626.28.626.627v11.033H51.844c-.343 0-.621-.279-.621-.622 0-.343.278-.621.621-.621h9.888v-9.79c0-.346.281-.627.627-.627zm-61.343 0c.347 0 .627.28.627.627l.001 9.79h9.888l.091.006c.3.045.53.303.53.615 0 .343-.278.622-.621.622H.39V21.963l.007-.093c.045-.302.305-.534.62-.534zM62.987 0v11.032c0 .347-.281.627-.628.627-.346 0-.627-.28-.627-.627v-9.79h-9.888c-.343 0-.621-.277-.621-.62 0-.344.278-.622.621-.622h11.142zM11.532 0c.343 0 .621.278.621.621 0 .312-.23.57-.53.615l-.091.007-9.888-.001v9.79c0 .347-.281.627-.628.627-.315 0-.575-.232-.62-.534l-.007-.093V0h11.143z"/>
        <g>
            <path d="M0 0H3.312V21.389H0zM22.353 0H24.009V21.389H22.353zM10.762 0H14.074V21.389H10.762zM33.943 0H34.943V21.389H33.943zM5.795 0H7.451V21.389H5.795zM27.32 0H30.632V21.389H27.32zM16.558 0H19.87V21.389H16.558zM38.083 0H41.394999999999996V21.389H38.083z" transform="translate(10.39 6)"/>
        </g>
    </g>
</svg>
