<svg xmlns="http://www.w3.org/2000/svg" width="56" height="30" viewBox="0 0 56 30">
    <g fill="#000" fill-rule="evenodd">
        <path d="M10 6h2.96v19H10zM29.98 6h1.48v19h-1.48zM19.62 6h2.96v19h-2.96zM40.34 6h1v19h-1zM15.18 6h1.48v19h-1.48zM34.42 6h2.96v19h-2.96zM24.8 6h2.96v19H24.8zM44.04 6H47v19h-2.96z"/>
        <g>
            <path d="M55.44 19.279c.309 0 .56.251.56.56v9.975h-9.963a.562.562 0 1 1 0-1.123h8.84l.001-8.851c0-.31.251-.561.561-.561zm-54.88 0c.31 0 .562.251.562.56v8.852h8.84l.092.007a.562.562 0 0 1-.091 1.116H0V19.84l.007-.091a.561.561 0 0 1 .554-.47zM56 0v9.974a.56.56 0 1 1-1.122 0V1.123h-8.84a.562.562 0 0 1 0-1.123H56zM0 0h9.963a.562.562 0 0 1 .09 1.116l-.09.007h-8.84l-.001 8.851a.56.56 0 0 1-1.115.091L0 9.975V0h9.963z"/>
        </g>
    </g>
</svg>
