<svg xmlns="http://www.w3.org/2000/svg" width="32" height="32" style="background:#fff" viewBox="0 0 32 32">
    <g fill="none" fill-rule="evenodd">
        <path fill="#FFF" d="M0 0h32v32H0z"/>
        <g fill-rule="nonzero" stroke="#000">
            <path d="M27.614 8.559h-4.678l-.19-1.715c-.064-.453-.223-.841-.478-1.132A2.035 2.035 0 0 0 20.71 5h-9.418c-.668 0-1.305.324-1.686.874-.191.258-.287.582-.35.938l-.191 1.747H4.386C3.082 8.559 2 9.659 2 10.985v13.589C2 25.9 3.082 27 4.386 27h23.228C28.918 27 30 25.9 30 24.574V10.985c0-1.326-1.082-2.426-2.386-2.426z"/>
            <path d="M16.343 23.2c-3.04 0-5.543-2.528-5.543-5.6 0-3.072 2.502-5.6 5.543-5.6 3.041 0 5.544 2.528 5.544 5.6 0 3.072-2.503 5.6-5.544 5.6z"/>
        </g>
    </g>
</svg>
