<svg xmlns="http://www.w3.org/2000/svg" width="32" height="32" viewBox="0 0 32 32">
    <path fill="#000" fill-rule="nonzero" d="M16 5c4.053 0 7.718 2.212 9.64 5.697l.011.023h.029v.054l.132.248a10.943 10.943 0 0 1 1.18 4.574L27 16v1h-.045C26.45 22.608 21.738 27 16 27c-3.74 0-7.044-1.867-9.032-4.72H6.76v-.31A10.935 10.935 0 0 1 5.044 17L5 17v-1c0-1.893.478-3.673 1.32-5.229v-.051h.027A10.997 10.997 0 0 1 16 5zm3.076 17.28h-6.152c.744 2.343 1.876 3.84 3.076 3.84 1.2 0 2.332-1.497 3.076-3.84zm4.86 0L20 22.282c-.46 1.531-1.087 2.78-1.835 3.607a10.122 10.122 0 0 0 5.77-3.607zm-15.872 0a10.12 10.12 0 0 0 5.771 3.608c-.748-.827-1.376-2.076-1.835-3.607H8.064zm3.115-5.279h-5.25c.153 1.557.659 3.01 1.436 4.28h4.37a22.639 22.639 0 0 1-.556-4.28zm14.892 0h-5.25a22.64 22.64 0 0 1-.555 4.28h4.369A10.058 10.058 0 0 0 26.07 17zm-6.131 0h-7.88c.063 1.56.27 3.012.584 4.28h6.712c.314-1.268.521-2.72.584-4.28zM6.827 11.72A10.08 10.08 0 0 0 5.88 16h5.28c0-1.516.13-2.963.367-4.28h-4.7zm12.749-.001l-7.15.002A23.172 23.172 0 0 0 12.04 16h7.92c0-1.5-.133-2.953-.384-4.281zm.895 0A24.21 24.21 0 0 1 20.84 16h5.28c0-1.5-.327-2.954-.947-4.28l-4.702-.001zm-6.636-5.607a10.143 10.143 0 0 0-6.47 4.608h4.369c.467-1.99 1.196-3.607 2.101-4.608zM16 5.88l-.12.005c-1.317.11-2.54 2.012-3.237 4.835h6.715l-.003-.015C18.612 7.716 17.302 5.88 16 5.88zm2.172.234l.114.13c.84.998 1.525 2.548 1.977 4.475h4.372a10.12 10.12 0 0 0-6.463-4.605z"/>
</svg>
