<svg xmlns="http://www.w3.org/2000/svg" width="32" height="32" viewBox="0 0 32 32">
    <path fill="#000" fill-rule="nonzero" d="M19.258 22.28C18.515 25.138 17.296 27 16 27s-2.515-1.862-3.258-4.72zm-7.542 0c.48 1.92 1.18 3.485 2.032 4.49a11.01 11.01 0 0 1-6.78-4.49zm13.317 0a11.007 11.007 0 0 1-6.781 4.49c.852-1.005 1.552-2.57 2.032-4.49h4.749zM11.016 17c.05 1.524.215 2.969.476 4.28H6.348A10.93 10.93 0 0 1 5.045 17zm8.967.001a25.785 25.785 0 0 1-.492 4.279h-6.982a25.785 25.785 0 0 1-.492-4.279zm6.972 0a10.93 10.93 0 0 1-1.303 4.279h-5.144c.26-1.311.425-2.756.476-4.28h5.971zm-15.64-5.28A28.253 28.253 0 0 0 11 16H5c0-1.38.254-2.7.718-3.918l.146-.362zm8.36-.001c.213 1.34.325 2.789.325 4.28h-8c0-1.52.118-2.966.327-4.28zm6.461 0C26.703 13.06 27 14.51 27 16h-6c0-1.485-.11-2.931-.318-4.281l5.454.002zM13.75 5.23c-.996 1.173-1.785 3.112-2.257 5.49H6.347a11.02 11.02 0 0 1 7.108-5.424zM16 5l.124.006c1.318.124 2.625 2.23 3.338 5.568l.03.145-6.983.001C13.213 7.304 14.558 5 16 5zm9.64 5.697l.012.023h-5.148l-.078-.38c-.485-2.232-1.238-4.009-2.167-5.107a11.002 11.002 0 0 1 7.38 5.464z"/>
</svg>
