<svg xmlns="http://www.w3.org/2000/svg" width="32" height="32" style="background:#fff" viewBox="0 0 32 32">
    <g fill="none" fill-rule="evenodd">
        <path fill="#FFF" d="M0 0h32v32H0z"/>
        <g transform="translate(3 6)">
            <path fill="#000" stroke="#000" d="M0 2a2 2 0 0 1 2-2h22a2 2 0 0 1 2 2v4a2 2 0 0 0-2-2H2a2 2 0 0 0-2 2V2z"/>
            <rect width="27" height="17" x="-.5" y="3.5" fill="#000" stroke="#FFF" rx="2"/>
            <path fill="#FFF" fill-rule="nonzero" d="M15.736 12.264c0 1.016-.968 1.688-2.696 1.744v.824h-.672V14c-1.144-.08-2.152-.464-2.92-1.128l.6-.64c.648.56 1.4.864 2.32.944v-1.632c-1.432-.136-2.72-.432-2.72-1.504 0-1.064 1.224-1.6 2.72-1.648v-.744h.672v.76c.992.08 1.832.416 2.432.904l-.592.632c-.496-.424-1.12-.64-1.84-.712v1.48c1.6.144 2.696.44 2.696 1.552zM10.624 9.96c0 .52.728.624 1.744.704V9.208c-.824.016-1.744.192-1.744.752zm2.416 3.232c1.104-.032 1.728-.296 1.728-.848 0-.528-.576-.64-1.728-.744v1.592z"/>
        </g>
    </g>
</svg>
