<svg xmlns="http://www.w3.org/2000/svg" width="80" height="80" viewBox="0 0 80 80">
    <g fill="none" fill-rule="nonzero">
        <path fill="#C3B5B5" d="M25.105 16.162c-2.605.791-5.385 3.951-6.523 6.356-1.381 2.915-1.868 5.878-2.037 9.088-.163 3.078.244 5.895.403 8.91.143 2.723.409 5.343 1.053 7.926.354 1.427.981 2.3 2.182 3.21.939.71 1.664 1.43 2.359 2.43.694.997 1.582 2.023 2.18 3.087.685 1.213.457 1.518 1.677 2.8.529.555.85.814 1.353 1.552.357.524.75 1.298.97 1.898.432 1.188.462 2.74 1.958 3.152 1.458.4 2.054-.674 2.762-1.691.662-.948 1.221-2.568 2.327-1.152.614.787.567 1.455 1.512 2.063 1.036.667 1.856.445 2.042-.838.094-.648-.415-2.843.967-2.027.51.302.55 1.054.79 1.538.23.47.699.859.76 1.375.493.356 1.233.5 1.826.239.833-.367.45-.799.42-1.533-.016-.43.105-1.555.386-1.882.422-.489 1.03-.105 1.478.413.868 1.006.802 2.432 1.832 3.367 1.032.935 2.584.79 3.396-.268 1.417-1.847 2.386-4.117 3.55-6.147.692-1.206 1.623-2.396 2.425-3.515.777-1.088 1.462-2.231 2.285-3.31 1.722-2.258 3.068-4.66 3.068-7.617 0-1.471.082-2.777.425-4.17.333-1.346.321-2.704.459-4.086.264-2.667-.02-5.337-.158-8.01-.122-2.4-.109-4.423-2.02-6.21-1.04-.975-2.123-2.618-3.033-3.76-.95-1.194-2.3-1.745-3.525-2.698-3.025-2.354-6.729-2.754-10.32-3.107-6.34-.626-12.89-1.029-18.582 2.208-.294.167-.577.377-.888.49"/>
        <g fill="#F0D9CE">
            <path d="M62.94 33.567c-.136-1.322-.433-2.626-.477-3.975-.117-3.642-2.084-7.199-4.635-9.712-.883-.87-2.175-1.856-3.298-2.38-2.487-1.16-5.72-2.02-8.426-2.39-.116-.017-2.538-.094-2.385.168.212.36.981.64.259 1.013-.407.208-1.343-.008-1.786-.052-1.447-.142-2.832-.527-4.301-.134-.682.182-1.232.57-1.952.71-.716.14-1.445.212-2.163.342a24.785 24.785 0 0 0-3.362.835c-.48.158-1.505.402-1.803.792-.497.644.036 1.278.235 1.925.236.776.29 1.261-.539 1.687-.671.346-1.258-.165-1.76.109-.208.112-.263.448-.5.56-.306.14-.703 0-1.031.156-1.482.71.628 1.73.175 2.72-.075.16-.167.299-.266.426-.814-1.264-1.4 1.896-1.409 2.454-.015 1.468.287 3.008.463 4.465.083.685.145 1.16.154 1.16 2 0 3.186-3.573 5.495-2.425.567.282.566.655.955 1.097.544.613 1.143.668 1.92.657 1.563-.021 2.172-.857 3.356-1.57 1.224-.735 2.362-.158 2.953 1.044.455.925.973 2.912.351 3.843.272-.407 2.065-.208 2.473 0 .737.38.785 1.121 1.246-.152.448-1.237.653-2.558 1.209-3.76.43-.935 3.092-4.956 4.189-2.551.218.477-.16 2.358.855 2.01.745-.255 1.588-2.608 2.203-3.237 1.104-1.13 2.536-1.963 4.067-1.116 1.581.876-.391 3.23.687 4.338 1.088 1.118 2.762-.695 3.598.982.548 1.1.685 2.343.896 3.542.107.595.475 4.143 1.106 4.219.556.065 1.318-7.127 1.247-7.8zM24.645 26.68l.244-.265c-.077.094-.16.182-.244.265zM33.863 56.614c-.71-2.044.283-4.4 1.04-6.293.21-.522.653-1.225.097-1.59-.33-.218-2.416.004-2.81.155-.752.287-1.403 1.498-2.055 2.011-.609.478-1.57 1.107-2.39.88-.531-.145-1.707-1.74-1.096-2.236-.86.697-1.72 1.394-2.927 1.045-1.031-.263-1.635-1.22-1.29-2.177-2.152 0-3.186-.436-3.616-2.787-.494-2.696-.03-5.176 1.087-7.665.286-.64.457-1.535 1.078-1.94-1.068.504-2.084 1.47-2.606 2.55-.47.962-.878 2.442-.969 3.505-.085.975.142 1.917.177 2.883.039 1.032.347 1.974.328 3-.017.99.426 2.215.986 3.024.505.73 1.302 1.225 1.786 1.963.458.702.952 1.012 1.6 1.559.408.342.654.779.977 1.195.512.66 1.134 1.205 1.58 1.921.643 1.031 1.237 2.015 2.174 2.81.485.41 1.011.973 1.417 1.486.717.909 2.359 2.187 3.31.817.64-.919.747-2.478 2.216-2.26.681.101 2.99 1.41 2.28-.502-.489-1.31-1.91-2.02-2.374-3.354z"/>
        </g>
        <g fill="#998F91">
            <path d="M41.631 36.804c-.384-.23-.894-.265-1.328-.217-.256.028-.51.057-.766.077h-.006c.008-.064.018-.12.022-.144.052-.31.086-.625.11-.937.054-.658.001-1.323-.132-1.968-.223-1.093-.975-2.098-2.133-2.21-1.528-.15-2.681.953-3.879 1.718-.832.534-1.709.48-2.513-.069-.5-.339-.85-.843-1.388-1.14-1.253-.7-2.784.075-3.554 1.124-.207.282-.371.575-.615.827-.398.407-1.052.477-1.576.577-.974.184-1.703.715-2.495 1.286-2.833 2.052-4.057 6.036-2.877 9.349.101.287.546.173.46-.13-.62-2.164.09-4.62 1.27-6.46.62-.968 1.44-1.595 2.388-2.207.517-.335.963-.556 1.572-.671.587-.112 1.122-.216 1.65-.514.753-.424 1.007-1.25 1.666-1.754.812-.619 1.551-.328 2.208.262 1.405 1.26 3.011 1.54 4.649.517.95-.595 3.034-2.446 3.749-.608.256.652.253 1.382.21 2.07-.039.604-.576 1.707-.09 2.2.4.405 1.137.268 1.639.224.697-.064 1.4-.214 1.26.767-.16 1.125-.774 1.249-1.591 1.865-.886.67-1.566 1.573-2.234 2.45-.743.977-1.476 2.284-1.067 3.54a.503.503 0 0 0 .965 0c.265-.78.354-1.517.792-2.236.424-.702 1.005-1.349 1.56-1.949.902-.98 2.219-1.284 2.709-2.607.387-1.049.424-2.4-.635-3.032zM44.598 45.807c-.33-.492-.543-1.043-.875-1.537-.271-.413-.883-.31-1.148-.687-.35-.5.019-1.463.18-1.976.192-.615.471-1.204.685-1.81.547-1.555 1.507-2.821 2.313-4.23.228-.396.42-.81.65-1.206.135-.228.284-.442.464-.637.2-.216.244.305.296.498.255.948.44 1.736 1.34 2.26.707.41 1.445-.001 1.89-.585.55-.72.854-1.591 1.27-2.393.503-.97 1.279-2.367 2.278-2.851l-.754-.311c.357 1.215-.502 2.516.12 3.705.562 1.074 1.742 1.555 2.91 1.512.35-.011.706-.1 1.058-.13.397-.036.192-.125.242.112.09.431.1.877.179 1.31.148.82.532 1.545 1.41 1.627.553.054.545-.816 0-.87-1.154-.116.167-3.105-1.51-3.27-1.096-.106-2.44.493-3.245-.612-.429-.587-.167-1.467-.079-2.118.072-.533.061-1.028-.095-1.542-.103-.337-.452-.46-.755-.31-1.122.56-1.754 1.88-2.404 2.897-.534.834-.801 1.81-1.359 2.634-.375.551-.735.414-1.154-.018-.368-.38-.389-1.154-.55-1.64-.28-.855-1.044-1.188-1.726-.55-.777.724-1.194 1.997-1.758 2.893-.884 1.401-1.487 2.86-2.07 4.404-.436 1.15-.955 2.303-.63 3.55.135.504.53.751 1.008.812.409.053.646-.324 1.011.233.209.318.326.677.553.987.11.152.364.011.255-.151zM37.695 48.183c-.412.647-.99 1.18-1.427 1.813-.415.602-.711 1.31-.97 1.991-.48 1.264-.723 2.85-.148 4.122.552 1.223 1.547 1.742 2.68 2.32.839.425 2.151.686 2.998.186.104-.06.058-.22-.059-.22-1.094-.003-1.886.05-2.889-.506-.798-.444-1.347-1.654-1.59-2.506-.315-1.107.019-2.264.421-3.301.209-.545.48-1.06.703-1.596.277-.664.44-1.382.746-2.027.148-.315-.273-.572-.465-.276z"/>
        </g>
        <g fill="#50A0B8">
            <path d="M45.915 47.506l-.053.03a.243.243 0 0 0-.108.269c.372 1.436 1.643 2.622 2.969 3.192 1.064.458 3.138 1.11 4.052.066.097-.11.04-.318-.125-.308-1.325.07-2.361-.224-3.567-.767-1.097-.494-2.386-1.209-2.898-2.366-.036-.079-.126-.114-.204-.118-.017-.001-.046-.01-.066.002zM55.5 53.433c.023-.053.044-.106.064-.16.303-.763.35-1.62.01-2.448-.036-.089-.17-.085-.171.023-.016.545-.033 1.139-.145 1.69a4.75 4.75 0 0 1-.935 1.538c-.026.029-.057.055-.082.083a2.122 2.122 0 0 1-.404.197c-1 .336-2.08.44-2.974 1.046-1.626 1.101-1.856 4.017-1.896 5.811-.003.079.109.09.13.018.192-.6.294-1.215.416-1.827.383-.593.571-1.286 1.03-1.845.747-.91 1.963-1.486 2.974-2.025.824-.44 1.548-1.154 1.939-2.008.013-.031.031-.062.045-.093zM37.584 15.112c-1.978-.171-3.955.023-5.867.515-.166.032-.334.056-.499.095a7.42 7.42 0 0 0-1.202.347c-.433.147-.862.309-1.277.495-2.08.93-4.03 2.366-5.693 3.93-1.632 1.537-3.059 3.438-3.612 5.653a6.387 6.387 0 0 0-.099 2.601c.002.287.021.575.072.87.188 1.106.58 2.249.962 3.301a1.897 1.897 0 0 0-.33-.148c-.163-.05-.37.06-.405.232-.17.819-.345 1.856-.046 2.65.066.173.286.176.352 0 .235-.644.157-1.374.251-2.07.235.15.447.337.7.462.22.109.515-.02.51-.295-.026-.948-.499-1.709-.894-2.54-.16-.626-.269-1.271-.322-1.918.02-.665.13-1.335.233-1.916a10.06 10.06 0 0 1 .598-2.04c.5-1.06 1.15-2.042 1.902-2.944 1.111-1.335 2.402-2.49 3.71-3.622.024-.02.051-.038.076-.06a18.342 18.342 0 0 1 2.139-1.366 10.247 10.247 0 0 1 1.087-.503c1.468-.597 3.017-.907 4.581-1.21a63.217 63.217 0 0 1 3.073-.355c.103-.01.104-.155 0-.164zM20.626 33.037l.011.048-.05-.031c.016-.002.027-.01.04-.017z"/>
        </g>
        <g fill="#938F8E">
            <path d="M21.385 43.885c.165-.38.325-.701.396-1.114.115-.655.448-1.155.765-1.721.529-.94 1.43-1.68 2.31-2.25 1.037-.673 2.036-1.106 3.273-1.228 1.295-.128 2.623.123 3.864.48 1.639.475 4.411 1.257 4.333 3.41-.04 1.126-.951 2.366-1.512 3.3-.522.866-1.06 1.707-1.718 2.475-.272.32-.02.957.45.779.924-.349 1.436-1.318 1.926-2.132.75-1.244 1.612-2.543 1.97-3.972.65-2.608-1.878-4.008-3.88-4.786-2.688-1.049-6.016-1.407-8.532.274-1.055.705-1.94 1.556-2.64 2.624-.754 1.156-.903 2.452-1.338 3.72-.068.195.25.332.333.141zM47.094 46.763c-.205.486-.216.663.136 1.105.425.533 1.178.908 1.707 1.318 1.378 1.07 3.456 1.592 5.18 1.333 1.582-.237 2.981-1.014 4.141-2.105.757-.711 1.926-1.976 1.575-3.136-.086-.28-.52-.311-.591 0-.232 1.005-.87 1.811-1.592 2.52-.9.885-2.07 1.19-3.27 1.431-1.36.271-3.247.044-4.456-.667-.507-.299-.932-.705-1.474-.95-.38-.17-.853-.511-1.093-.849-.06-.08-.212-.116-.263 0zM46.021 45.258c-.714-1.359-2.295-3.302-.533-4.546.558-.394 1.352-.541 2-.7.966-.235 1.937-.45 2.905-.663 1.085-.24 2.18-.399 3.289-.457.696-.036 1.392-.108 2.064.12 1.612.544 2.1 2.617 3.008 3.843.124.166.372.112.387-.108.07-.957-.54-1.907-1-2.706a5.703 5.703 0 0 0-1.817-1.957c-.676-.446-1.622-.403-2.39-.378a21.65 21.65 0 0 0-3.857.482c-1.791.384-4.22.73-5.55 2.153-1.423 1.526.235 3.83 1.147 5.121.15.212.473.031.347-.204z"/>
        </g>
        <g fill="#838382">
            <path d="M43.564 53.993a5.16 5.16 0 0 0-.119-1.394c-.408-1.773-1.945-3.094-2.942-4.528-.358-.52-1.209-.027-.847.501 1.258 1.837 3.735 3.875 2.577 6.354-1.213 2.587-5.578.67-4.585-2.009.11-.298-.38-.44-.473-.131-.215.712-.381 1.23-.18 1.988.175.663.66 1.323 1.202 1.725 1.2.889 2.89 1.084 4.118.153.226-.171.408-.376.57-.595.012-.004.024-.002.039-.007-.052.018.09-.02.107-.04.003-.003.006-.006.007-.009.331-.129.54-.458.659-.8.143-.407.046-.832-.133-1.208zM61.688 50.07c-1.755.018-2.928 2.172-3.762 3.464-.686 1.065-1.348 2.13-2.256 3.02-.869.85-1.905 1.507-2.781 2.349-1.286 1.233-1.77 2.855-2.283 4.495-.189.608-.389 1.3-.83 1.775-.54.579-1.381-.831-1.58-1.193-.762-1.38-1.431-2.691-2.569-3.813-.828-.819-2.263-.983-2.394.49-.053.583.074 1.175.17 1.746.09.531.357 1.321.124 1.847-.18.403-.556-.374-.67-.57-.359-.635-.635-1.314-1.004-1.943-.391-.666-.907-1.184-1.687-1.282-.792-.1-1.431.473-1.69 1.181-.29.78-.29 1.63-.475 2.435-.189.816-.496.479-.779-.078-.663-1.299-1.274-3.109-3.066-2.24-.456.221-.822.62-.993 1.1-.294.818-.684 1.535-1.295 2.158-1.214 1.236-3.134-1.2-3.611-2.235-.224-.483-1.02-.138-.848.36.515 1.5 2.18 3.657 3.958 3.38.928-.143 1.52-.822 2.037-1.562.291-.416.52-.852.701-1.327.178-.46.388-.987.959-.999.613-.013 1.2 2.18 1.548 2.62.689.876 1.934.674 2.367-.343.225-.534.274-1.118.343-1.69.054-.456.072-1.278.506-1.557.851-.546 1.83 2.286 2.085 2.76.498.925 1.65 1.706 2.497.658.778-.961.224-2.553.035-3.63a4.256 4.256 0 0 1-.06-.55c-.004-.128.039-.204.016-.233.354.072.887.844 1.063 1.056.725.881 1.204 1.844 1.733 2.852.494.94 1.236 1.948 2.385 1.986.913.032 1.498-.924 1.824-1.65.038-.087.068-.177.103-.265.706-.904.927-2.156 1.423-3.177.347-.715.833-1.365 1.284-2.016.1-.144.206-.286.31-.43.288-.255.583-.502.879-.747 1.353-1.125 2.291-2.471 3.17-3.993.421-.73.86-1.446 1.333-2.143.417-.62.976-1.473 1.78-1.555.317-.034.333-.515 0-.511zM58.868 43.984c-.279-.266-.587-.508-.819-.755-.738-.782-1.306-1.726-2.16-2.393-1.337-1.047-3.365-.3-4.826.056-1.272.308-2.742.341-3.905.997-.425.24-.77.455-.715 1.023.04.4.11.787.214 1.173.166.615.244 1.249.284 1.885a.225.225 0 0 1-.02.109c.526.98 1.202 1.485 2.118 2.073 1.372.88 3.066 1.083 4.712 1.174.7.039 1.362-.178 2.015-.41.624-.219 1.302-.42 1.864-.788.483-.317.793-.73 1.071-1.218.23-.4.777-1.029.841-1.475.086-.6-.259-1.052-.674-1.45zM22.369 46.035c.529-.067 1.053-.067 1.539-.316.5-.258.961.35.59.773-.553.637.359 1.145.849.963a3.56 3.56 0 0 0 .844-.473c.406-.29.79-.622 1.23-.854.369-.19.745.051.78.451.02.26.086 1.589.22 1.537.975-.376 1.703-1.23 2.295-2.071.334-.471.617-1.17 1.314-.976.38.105.612.496.862.835.128-.233.267-.456.393-.69.214-.398.407-.808.59-1.222.35-.78.777-1.804.286-2.628-.768-1.287-2.952-1.89-4.326-2.092-1.928-.282-4.248.037-5.581 1.635-.591.709-.958 1.568-1.52 2.293-.362.465-.87 1.205-1.428 1.411-1.185.447.401 1.508 1.063 1.424z"/>
        </g>
        <g fill="#565657">
            <path d="M59.168 43.116c-.909-1.24-1.75-2.756-3.038-3.656-1.56-1.093-4.071-.16-5.699.247-1.546.386-3.238.462-4.484 1.588-1.302 1.176.052 3.455.538 4.737.074.197.36.216.436.047a.225.225 0 0 0 .02-.109 9.488 9.488 0 0 0-.284-1.885 7.145 7.145 0 0 1-.214-1.173c-.054-.568.29-.783.715-1.023 1.163-.656 2.633-.689 3.905-.997 1.461-.356 3.489-1.103 4.826-.056.985.77 1.653 1.975 2.54 2.857a.424.424 0 0 0 .284.123c.347.018.707-.354.455-.7zM35.635 41.19c-.537-1.903-2.935-2.672-4.598-3.134-2.298-.641-4.918-.255-6.822 1.228-.921.717-1.364 1.609-1.816 2.658-.252.588-.602 1.002-.979 1.507-.227.308-.474.879-.62 1.334-.02.063-.044.13-.059.188 0 .002.003 0 .003.002l-.005.011c-.09.143-.163.807.11 1.007.232.17.368.438.59.62.231.187.538.207.82.247.432.06.848.045 1.258-.027-.02.716.357 1.273 1.212 1.557.936.313 1.747-.29 2.498-.853.025.42.077.839.264 1.21.325.65 1.195.494 1.716.25 1.04-.488 1.819-1.46 2.484-2.374l.158-.227c.087.145.163.305.274.42.274.275.497.372.82.363a.3.3 0 0 0 .352-.01c.49-.331.713-.453 1.043-.985.336-.546.598-1.139.866-1.722.483-1.058.756-2.12.431-3.27zm-3.605 3.88c-.697-.195-.98.504-1.314.975-.592.841-1.32 1.695-2.296 2.071-.133.052-.199-1.277-.22-1.537-.034-.4-.41-.642-.779-.45-.44.23-.824.562-1.23.853a3.56 3.56 0 0 1-.844.473c-.49.182-1.402-.326-.849-.963.371-.424-.09-1.03-.59-.773-.486.249-1.01.249-1.54.316-.66.084-2.247-.977-1.062-1.424.558-.206 1.066-.946 1.428-1.41.562-.726.929-1.585 1.52-2.294 1.333-1.598 3.653-1.917 5.581-1.635 1.374.203 3.558.805 4.326 2.092.49.824.064 1.848-.285 2.628-.184.414-.377.824-.591 1.221-.126.235-.265.458-.393.69-.25-.338-.483-.73-.862-.834z"/>
        </g>
        <g fill="#000">
            <path d="M57.582 50.893c-.179.484-.107 1.018-.317 1.517-.26.621-.702 1.167-1.138 1.668-.905 1.037-2.055 1.706-3.136 2.518-2.229 1.674-3.006 4.228-3.325 6.886-.747-.153-1.373-.602-1.683-1.354-.065-.158-.325-.157-.314.042.057 1.357 1.085 2.243 2.398 2.293.263.01.44-.22.456-.462.119-1.572.348-3.106 1.081-4.517.76-1.463 2.031-2.216 3.283-3.173.997-.764 1.905-1.783 2.595-2.837.397-.61 1.154-2.106.322-2.672-.086-.059-.19.005-.222.091zM38.8 57.417c1.768.724 4.048-.025 5.166-1.532a.28.28 0 0 0 .055-.138c.043-.055.087-.108.124-.172.214-.37.238-.867.217-1.282a3.461 3.461 0 0 0-.266-1.154c-.356-1.535-1.356-3.073-2.19-4.128-.57-.718-1.834-1.958-2.74-.985-.371.397-.603.88-.873 1.347-.434.745-.838 1.438-1.088 2.268-.388 1.284-.896 2.593-.335 3.91.382.896 1.045 1.502 1.93 1.866zm-1.123-4.75c.4-1.088 1.038-2.049 1.608-3.054.176-.311.315-.632.56-.9.348-.385 1.41.93 1.595 1.156.583.704 1.06 1.52 1.48 2.328.392.756.836 1.77.775 2.686-.073.258-.195.492-.308.726-.9 1.166-2.515 1.629-3.917 1.362a2.787 2.787 0 0 1-1.814-1.211c-.653-.99-.355-2.07.02-3.094zM59.896 38.831c-.176-.773-.567-1.47-.803-2.224-.275-.87-.039-1.7-.225-2.554-.042-.202-.226-.291-.407-.314-.867-.112-1.602.612-2.445.469-1.202-.205-1.088-2.027-1.182-2.915-.058-.522.085-1.27-.195-1.739-.34-.57-.989-.343-1.435-.05a6.79 6.79 0 0 0-.938.757c-.395.287-.72.717-.998 1.084l-.005.008c-.722.894-1.36 1.88-2.04 2.748-.624.797-1.149-1.281-1.354-1.684-.27-.53-.747-.838-1.324-.652-.641.205-1.078 1.017-1.384 1.625-.223.34-.403.717-.544 1.06-.06.146-.124.285-.187.426-.307.636-.613 1.272-.926 1.902-.806 1.623-1.614 3.311-2.112 5.061-.28.98-.545 2.605.501 3.255.21.13.436.228.683.258.19.022.369.03.561.027.354-.007.497.42.664.646.411.559 1.177.493 1.733.245.142-.063.055-.263-.073-.273-.578-.046-.93-.161-1.206-.75-.124-.265-.375-.452-.61-.603-.521-.335-1.219.074-1.646-.517a1.158 1.158 0 0 1-.17-.349c.13-1.044.443-2.071.822-3.05.3-.78.546-1.601.845-2.39.546-1.132 1.122-2.249 1.67-3.384.076-.161.336-.778.658-1.361.033-.041.059-.084.093-.123.619-.727 1.076-.364 1.401.313.618 1.297 1.406 1.82 2.622.841.775-.626 1.264-1.581 1.775-2.418.214-.354.522-.69.8-1.039.27-.276.544-.546.838-.796.13-.113.273-.212.426-.296.287-.174.172.168.18.364.051 1.194-.077 2.833.691 3.827.42.547.991.859 1.676.875.64.018 1.24-.35 1.864-.497.109.375.091.799.13 1.176.045.42.159.825.287 1.227.222.702.554 1.38 1.036 1.932.108.121.286-.008.253-.148zM36.349 47.218c.133-2.412 1.858-4.855 3.741-6.249.623-.46 1.258-.855 1.622-1.572.252-.502.285-1.273-.268-1.593-.555-.325-1.197-.304-1.819-.236-.122.015-.245.036-.37.053-.276.043-.72.286-.757-.032-.047-.396.001-.808.033-1.204.095-1.187.287-2.818-.908-3.494-.013-.011-.032-.019-.045-.03-.026-.013-.043-.034-.07-.047-.023-.01-.044-.014-.066-.023-.025-.01-.043-.03-.07-.037-.014-.003-.028-.001-.044-.005-.608-.196-1.192.061-1.7.436-.115.084-.223.175-.33.264-.037.031-.078.059-.114.09a6.46 6.46 0 0 1-.618.468c-.457.295-1.06.443-1.577.582-.553.146-1.192.224-1.717-.048a.82.82 0 0 1-.164-.115c-.208-.246-.38-.537-.615-.837-.486-.619-1.24-.958-2.002-1.02a1.765 1.765 0 0 0-.842.164c-.527.125-.92.534-1.186 1.016-.217.385-.346.794-.636 1.134-.348.407-1.24.322-1.72.385-1.826.235-3 2.133-3.803 3.617-.62 1.148-1.1 2.345-1.349 3.633-.204 1.059-.204 2.553.272 3.539.026.055.104.026.105-.03.063-1.754.168-3.324.78-4.985.053-.142.11-.283.168-.425.346-.734.757-1.447 1.17-2.16a6.533 6.533 0 0 1 1.789-2.033 2.874 2.874 0 0 1 1.29-.447c.122-.012.243-.025.363-.039.348.018.705.05 1.085-.012.518-.086.782-.664.937-1.1.19-.53.455-.997.812-1.271.348-.139.764-.103 1.253.026.437.117.73.332.99.605.43.54.853 1.191 1.41 1.347.08.04.16.08.254.114.72.262 1.572.165 2.253-.167.517-.251.886-.593 1.255-.963.078-.054.16-.107.231-.165.536-.432 1.163-1.175 1.915-.825.547.255.579 1.014.59 1.533.02 1-.265 2.05.02 3.032.046.163.176.238.332.257.482.057 2.625-.442 2.895.216.348.845-1.653 1.85-2.115 2.336-1.602 1.684-3.19 3.9-3.119 6.317.011.3.442.297.459 0zM23.227 26.652c-.494.585-.583 1.49-.58 2.222.005.836.21 1.678.407 2.485.2.81.303 1.77.675 2.517.08.163.303.1.356-.047.21-.605.028-1.284-.07-1.899-.137-.85-.334-1.682-.411-2.542-.068-.77-.052-1.913.615-2.43.488-.381.863-.625 1.059-1.248.18-.57-.26-1.15-.457-1.641-.276-.69 1.126-.94 1.517-1.022.905-.191 2.529-.28 3.063-1.167.24-.397.325-.88.104-1.31-.208-.405-1.046-1.006-.932-1.458.11-.43.943-.676 1.285-.799.59-.212 1.204-.352 1.81-.497 1.576-.375 3.09-.829 4.708-1.025a61.3 61.3 0 0 1 2.722-.253c.89-.07 1.819-.273 2.703-.187.202.02.211-.273.046-.334-1.718-.65-3.678-.318-5.471-.117-1.698.19-3.288.666-4.94 1.06-1.057.253-2.359.475-3.208 1.217-.991.863-.35 1.657.361 2.416.97 1.032-.89 1.232-1.5 1.372-.573.132-1.158.186-1.73.351-1.182.345-1.842 1.317-1.226 2.48.548 1.04-.353 1.2-.906 1.856z"/>
            <path d="M63.997 34.963c-.002-.083-.288-4.949-.29-5.033-.06-2.412-.503-4.606-1.786-6.674-1.272-2.05-2.71-4.037-4.551-5.597-1.834-1.552-3.974-2.731-6.196-3.578-2.43-.925-5.204-1.446-7.763-1.83-2.557-.385-5.113-.302-7.664.079-4.23.628-8.208 1.556-11.908 3.842-3.291 2.036-5.639 4.916-6.816 8.631-.594 1.87-.865 3.891-.96 5.845a57.273 57.273 0 0 0 .083 6.769c.16 2.283.626 4.52 1 6.776.286 1.74.241 3.657.908 5.225.608 1.785 1.941 3.116 3.092 4.565 1.188 1.495 2.38 2.99 3.465 4.566a38.61 38.61 0 0 1 1.745 2.767c.75 1.312 1.158 2.78 1.902 4.091.567 1.002 1.44 2.292 2.644 2.356.6.032 1.267-.075 1.75-.455.565-.444.891-1.154 1.175-1.798.243-.55.431-1.763.988-2.092.071-.041.629.49.678.537.186.187.354.434.49.66.613 1.034.814 2.233 2.203 2.272 1.723.049 1.428-2.52 1.613-4.15.367.062.804 1.184.877 1.3.335.52.484 1.13.766 1.677.31.6.808 1.008 1.451 1.203.7.215 1.512.113 1.906-.56.31-.528.254-1.17.205-1.759-.05-.583-.005-1.128.04-1.697.04-.516.724.632 1.223 1.467.501.835 1.062 2.352 1.955 2.973 1.841 1.28 3.392-.485 4.328-1.956.645-1.013.928-2.442 1.453-3.516.563-1.154 1.383-1.967 2.093-3.032 2.083-3.122 3.051-3.854 4.68-5.791.526-.627 1.82-3.033 2.064-5.226.306-2.764.74-2.707 1.02-7.343.156-2.588.14-3.468.137-5.514zm-1.648 6.265c-.007 1.396-.241 2.74-.442 4.119-.187 1.3-.263 2.577-.627 3.847-.684 2.404-2.402 4.23-3.953 6.101-1.546 1.863-3.065 3.755-4.217 5.9-.57 1.062-.925 2.225-1.482 3.295-.455.869-1.266 2.23-2.401 1.98-.408-.088-.722-.574-.97-.876a9.52 9.52 0 0 1-1.007-1.493c-.553-1.009-1.194-1.945-2.08-2.683a.507.507 0 0 0-.621-.034h-.003s0 .002-.003.002a.56.56 0 0 0-.137.125c-.448.45-.424 1.134-.357 1.756.057.517.096.998-.023 1.512-.208.882-1.098.685-1.552.224-.233-.24-.41-.536-.59-.817-.339-.541-.652-1.093-.977-1.647-.183-.314-.483-.843-.812-1.027-.71-.403-1.11.241-1.248.89-.132.638.116 3.5-1.155 2.937-.45-.198-.701-.803-.999-1.168-.341-.419-.632-1.006-1.07-1.34-.65-.493-1.047-.384-1.317-.02a1.446 1.446 0 0 0-.375.467c-.525 1.02-.99 1.933-1.77 2.8-1.915 2.131-4.101-4.368-4.694-5.418-.741-1.312-1.629-2.528-2.57-3.702a28.27 28.27 0 0 0-1.704-2.25c-.726-.851-1.494-1.651-2.2-2.495a15.52 15.52 0 0 1-1.106-1.762c-.64-1.203-.99-2.48-1.355-3.776-.043-.418-.079-.838-.118-1.25-.124-1.272-.374-2.521-.49-3.794-.185-2.031-.394-4.063-.501-6.1-.202-3.865-.044-7.852 1.345-11.5 1.621-4.254 5.201-6.821 9.334-8.313 2.439-.88 4.97-1.247 7.533-1.548 2.81-.33 5.565-.54 8.38-.135 2.513.362 5.257.81 7.597 1.836a20.389 20.389 0 0 1 5.964 4.021c1.701 1.66 3.118 3.719 3.96 5.955.85 2.252 1.06 4.68 1.097 7.07.046 2.774-.268 5.54-.284 8.31z"/>
            <path d="M45.913 41.817c.061-.292.19-.483.34-.67.963-.541 2.513-.805 3.127-.952a55.673 55.673 0 0 1 3.481-.712c.792-.139 1.659-.34 2.463-.196.821.148 1.292 1.013 1.703 1.657.626.98 1.335 1.9 1.935 2.898.18.297.61.036.46-.272-.626-1.265-1.371-2.523-2.114-3.723a2.838 2.838 0 0 0-1.784-1.296c-.822-.187-1.728.055-2.537.197-1.484.258-2.956.565-4.433.86-1.291.26-3.89.516-3.994 2.327-.088 1.519 1.009 3.456 2.076 4.456.09.08.21-.02.16-.124-.345-.709-.729-1.505-1.002-2.317-.034-.299-.03-.603-.004-.934.033-.396.042-.81.123-1.199zM20.741 44.97c.015-.057.04-.124.06-.187a.324.324 0 0 0-.062.201c.002-.003.003-.009.005-.01 0-.003-.004 0-.003-.003zM27.57 49.833c.391.401.94.276 1.41.096.616-.236 1.16-.69 1.671-1.098.321-.258.57-.588.803-.927.169-.25.25-.545.42-.787.415.311.744.77 1.276.816.083.008.134-.034.167-.09.015-.005.03-.005.045-.014 1.717-1.007 2.747-3.621 3.067-5.503.387-2.274-1.378-3.727-3.37-4.293-1.146-.326-2.394-.418-3.576-.546-1.33-.143-2.83-.103-4.069.458-1.249.567-2.132 1.542-2.85 2.7-.775 1.247-1.094 2.68-1.713 4-.02.043.038.079.063.037.56-.942 1.13-1.878 1.698-2.814.691-1.133 1.348-2.202 2.5-2.917.392-.244.804-.421 1.227-.546.107-.026.213-.051.317-.071.975-.195 2.026-.085 3.009.01l.773.075c.536.108 1.063.236 1.568.365.561.144 1.14.311 1.666.537.944.59 1.611 1.504 1.61 2.787-.007 1.897-.929 3.288-1.886 4.823-.015.022-.01.041-.014.063-.112.09-.228.175-.348.246a5.933 5.933 0 0 0-1.045-.876.347.347 0 0 0-.348 0c-.365.247-.522.58-.721.97-.337.66-.987 1.08-1.577 1.48a3.569 3.569 0 0 1-.81.403c-.467.165-.394-.112-.43-.46-.043-.38-.094-.732-.252-1.081-.273-.59-1.013-.339-1.443-.15-.796.353-2.835 1.384-2.283-.455.09-.303-.193-.497-.455-.46-.755.103-1.14.19-1.806-.34-.355-.28-.719-.54-1.118-.756-.065-.033-.128.035-.097.1.314.632.639 1.106 1.203 1.524.512.38.94.348 1.448.274-.081.722.148 1.408 1.048 1.49.514.045 1.007-.08 1.482-.268.26-.102.5-.243.743-.384.458-.265.737-.383.777.262.025.396-.094 1 .22 1.32zM59.537 44.478c-.494 2.64-2.876 4.23-5.426 4.463-1.275.115-2.619-.246-3.765-.79-.984-.467-1.841-1.218-2.86-1.599-.102-.038-.178.09-.133.175.588 1.091 1.877 1.732 2.97 2.183 1.3.535 2.74.775 4.135.56 2.748-.422 4.73-2.182 5.365-4.912.043-.189-.251-.268-.286-.08z"/>
        </g>
    </g>
</svg>
